<svg width="113" height="51" viewBox="0 0 113 51" fill="none" xmlns="http://www.w3.org/2000/svg">
<path d="M51.812 31.9479C52.4653 32.6572 52.9973 33.4599 53.408 34.3559C53.8373 35.2519 54.052 36.1106 54.052 36.9319C54.052 37.3986 53.9587 37.8932 53.772 38.4159C54.332 38.7519 54.864 38.9199 55.368 38.9199C56.3013 38.9199 57.2533 38.6772 58.224 38.1919V40.3199C57.776 40.4506 57.3933 40.5159 57.076 40.5159C55.7693 40.5159 54.528 40.0959 53.352 39.2559C52.8293 39.9839 52.1853 40.5252 51.42 40.8799C50.6733 41.2159 49.8613 41.3839 48.984 41.3839C48.6667 41.3839 48.424 41.3746 48.256 41.3559C49.7867 43.5399 51.2147 45.2479 52.54 46.4799C53.884 47.7119 54.9853 48.3279 55.844 48.3279C56.292 48.3279 56.7307 48.0386 57.16 47.4599L59.036 48.9719C58.7747 49.2706 58.4387 49.5039 58.028 49.6719C57.6173 49.8586 57.1973 49.9519 56.768 49.9519C55.6667 49.9519 54.1827 49.1212 52.316 47.4599C50.4493 45.7986 48.7787 43.9132 47.304 41.8039C45.848 39.6946 45.12 38.0706 45.12 36.9319C45.12 36.3719 45.372 35.9052 45.876 35.5319C46.38 35.1586 46.9587 34.9719 47.612 34.9719C48.2653 34.9719 48.9 35.2706 49.516 35.8679C50.1507 36.4466 50.6453 37.2212 51 38.1919C51.4107 37.9492 51.728 37.6319 51.952 37.2399C52.1947 36.8292 52.316 36.3906 52.316 35.9239C52.316 35.2706 52.148 34.5986 51.812 33.9079C51.476 33.1986 51.0093 32.5452 50.412 31.9479H43.608V29.7079H49.74L51.812 31.9479ZM57.832 31.9479H53.1L51.028 29.7079H57.832V31.9479ZM48.368 36.9319C47.9573 36.9319 47.5747 37.0532 47.22 37.2959C46.884 37.5199 46.716 37.7812 46.716 38.0799C46.716 38.3972 46.8 38.6866 46.968 38.9479C47.1547 39.1906 47.3693 39.3119 47.612 39.3119C48.5827 39.3119 49.488 39.0879 50.328 38.6399C50.1787 38.1732 49.908 37.7719 49.516 37.4359C49.1427 37.0999 48.76 36.9319 48.368 36.9319Z" fill="#69D876"/>
<path d="M70.7805 31.9479V45.8919C70.7805 46.3026 71.0791 46.7879 71.6765 47.3479C72.2925 47.8892 73.0018 48.3652 73.8045 48.7759C74.6258 49.1679 75.3165 49.3639 75.8765 49.3639C76.1378 49.3639 76.3991 49.2892 76.6605 49.1399C76.9218 48.9906 77.1458 48.7852 77.3325 48.5239L79.3765 49.8399C78.8538 50.4186 78.2751 50.7079 77.6405 50.7079C76.5391 50.7079 75.2605 50.3346 73.8045 49.5879C72.3671 48.8412 71.1258 47.9639 70.0805 46.9559C69.0351 45.9292 68.5125 45.0706 68.5125 44.3799V42.3919C68.0831 42.8772 67.5791 43.2506 67.0005 43.5119C66.4405 43.7732 65.8618 43.9039 65.2645 43.9039C64.1631 43.9039 63.0991 43.6052 62.0725 43.0079C61.0645 42.3919 60.2431 41.6266 59.6085 40.7119C58.9925 39.7972 58.6845 38.9106 58.6845 38.0519C58.6845 37.3612 58.8991 36.7172 59.3285 36.1199C59.7765 35.5226 60.3645 35.0559 61.0925 34.7199C61.8205 34.3652 62.5951 34.1879 63.4165 34.1879C64.3871 34.1879 65.3205 34.4212 66.2165 34.8879C67.1125 35.3546 67.8685 36.0079 68.4845 36.8479V31.9479H57.0885V29.7079H68.5405L70.7805 31.9479ZM74.0285 31.9479H72.0405L69.8285 29.7079H74.0285V31.9479ZM65.3485 35.9519C64.5458 35.9519 63.7805 36.1292 63.0525 36.4839C62.3431 36.8386 61.7645 37.3146 61.3165 37.9119C60.8685 38.4906 60.6445 39.1066 60.6445 39.7599C60.6445 40.3759 60.9431 40.9359 61.5405 41.4399C62.1378 41.9252 62.7818 42.1679 63.4725 42.1679C64.4431 42.1679 65.3858 41.9159 66.3005 41.4119C67.2151 40.9079 67.9431 40.2172 68.4845 39.3399V38.1079C68.0738 37.4546 67.5791 36.9319 67.0005 36.5399C66.4405 36.1479 65.8898 35.9519 65.3485 35.9519Z" fill="#69D876"/>
<path d="M81.48 31.9479C82.1333 32.6572 82.6653 33.4599 83.076 34.3559C83.5053 35.2519 83.72 36.1106 83.72 36.9319C83.72 37.3986 83.6266 37.8932 83.44 38.4159C84 38.7519 84.532 38.9199 85.036 38.9199C85.9693 38.9199 86.9213 38.6772 87.892 38.1919V40.3199C87.444 40.4506 87.0613 40.5159 86.744 40.5159C85.4373 40.5159 84.196 40.0959 83.02 39.2559C82.4973 39.9839 81.8533 40.5252 81.088 40.8799C80.3413 41.2159 79.5293 41.3839 78.652 41.3839C78.3346 41.3839 78.092 41.3746 77.924 41.3559C79.4546 43.5399 80.8826 45.2479 82.208 46.4799C83.552 47.7119 84.6533 48.3279 85.512 48.3279C85.96 48.3279 86.3986 48.0386 86.828 47.4599L88.704 48.9719C88.4426 49.2706 88.1066 49.5039 87.696 49.6719C87.2853 49.8586 86.8653 49.9519 86.436 49.9519C85.3346 49.9519 83.8506 49.1212 81.984 47.4599C80.1173 45.7986 78.4466 43.9132 76.972 41.8039C75.516 39.6946 74.788 38.0706 74.788 36.9319C74.788 36.3719 75.04 35.9052 75.544 35.5319C76.048 35.1586 76.6266 34.9719 77.28 34.9719C77.9333 34.9719 78.568 35.2706 79.184 35.8679C79.8186 36.4466 80.3133 37.2212 80.668 38.1919C81.0786 37.9492 81.396 37.6319 81.62 37.2399C81.8626 36.8292 81.984 36.3906 81.984 35.9239C81.984 35.2706 81.816 34.5986 81.48 33.9079C81.144 33.1986 80.6773 32.5452 80.08 31.9479H73.276V29.7079H79.408L81.48 31.9479ZM87.5 31.9479H82.768L80.696 29.7079H87.5V31.9479ZM78.036 36.9319C77.6253 36.9319 77.2426 37.0532 76.888 37.2959C76.552 37.5199 76.384 37.7812 76.384 38.0799C76.384 38.3972 76.468 38.6866 76.636 38.9479C76.8226 39.1906 77.0373 39.3119 77.28 39.3119C78.2506 39.3119 79.156 39.0879 79.996 38.6399C79.8466 38.1732 79.576 37.7719 79.184 37.4359C78.8106 37.0999 78.428 36.9319 78.036 36.9319Z" fill="#69D876"/>
<path d="M112.236 49.8399C111.714 50.4186 111.135 50.7079 110.5 50.7079C109.418 50.7079 108.139 50.3346 106.664 49.5879C105.208 48.8599 103.948 47.9919 102.884 46.9839C101.82 45.9572 101.288 45.0612 101.288 44.2959V41.2999C100.635 42.2146 99.8324 42.9332 98.8804 43.4559C97.9471 43.9786 96.9951 44.2399 96.0244 44.2399C94.8858 44.2399 93.7938 43.9412 92.7484 43.3439C91.7218 42.7466 90.8258 41.9159 90.0604 40.8519C89.3138 39.7879 88.7631 38.5839 88.4084 37.2399C89.0991 37.6319 89.9204 37.8279 90.8724 37.8279C91.8431 37.8279 92.6738 37.6039 93.3644 37.1559C94.0738 36.6892 94.4844 36.1106 94.5964 35.4199H94.4844C94.2604 35.6439 93.9991 35.8212 93.7004 35.9519C93.4018 36.0639 93.1031 36.1199 92.8044 36.1199C92.1324 36.1199 91.4324 35.9052 90.7044 35.4759C89.9951 35.0279 89.3978 34.4866 88.9124 33.8519C88.4458 33.1986 88.2124 32.5826 88.2124 32.0039C88.2124 31.4439 88.3898 30.8932 88.7444 30.3519C89.1178 29.8106 89.5844 29.3719 90.1444 29.0359C90.7231 28.6812 91.3204 28.5039 91.9364 28.5039C92.7578 28.5039 93.5791 28.7559 94.4004 29.2599C95.2218 29.7639 95.8938 30.4079 96.4164 31.1919C96.9578 31.9759 97.2284 32.7412 97.2284 33.4879C97.2284 34.6079 96.9858 35.6439 96.5004 36.5959C96.0338 37.5479 95.3898 38.3132 94.5684 38.8919C93.7471 39.4519 92.8511 39.7319 91.8804 39.7319C91.2831 39.7319 90.7138 39.6199 90.1724 39.3959C90.4898 40.2919 91.0498 41.0292 91.8524 41.6079C92.6738 42.1679 93.5698 42.4479 94.5404 42.4479C95.7911 42.4479 97.0231 42.0279 98.2364 41.1879C99.4684 40.3479 100.486 39.2186 101.288 37.7999V31.9479H98.6564L96.8644 29.7079H101.372L103.612 31.9479V45.8919C103.612 46.3026 103.911 46.7879 104.508 47.3479C105.124 47.8892 105.834 48.3652 106.636 48.7759C107.458 49.1679 108.148 49.3639 108.708 49.3639C108.97 49.3639 109.231 49.2892 109.492 49.1399C109.754 48.9906 109.978 48.7852 110.164 48.5239L112.236 49.8399ZM104.9 31.9479L102.66 29.7079H106.86V31.9479H104.9ZM92.1044 34.4399C92.5338 34.4399 92.9631 34.2999 93.3924 34.0199C93.8218 33.7212 94.1764 33.3386 94.4564 32.8719C94.7551 32.4052 94.9044 31.9386 94.9044 31.4719C94.9044 31.0799 94.7458 30.7439 94.4284 30.4639C94.1298 30.1839 93.7564 30.0439 93.3084 30.0439C92.8418 30.0439 92.3751 30.1932 91.9084 30.4919C91.4604 30.7906 91.0871 31.1732 90.7884 31.6399C90.5084 32.0879 90.3684 32.5359 90.3684 32.9839C90.3684 33.3946 90.5364 33.7399 90.8724 34.0199C91.2271 34.2999 91.6378 34.4399 92.1044 34.4399Z" fill="#69D876"/>
<path d="M39.7 23.536C38.9907 23.536 38.2347 23.396 37.432 23.116C36.648 22.836 35.9107 22.444 35.22 21.94C34.548 21.4173 33.9973 20.8013 33.568 20.092C33.1387 19.3826 32.924 18.5986 32.924 17.74C32.924 16.956 33.1013 16.2653 33.456 15.668C33.8293 15.052 34.324 14.5573 34.94 14.184C35.556 13.792 36.228 13.54 36.956 13.428C37.7027 13.2973 38.4493 13.3253 39.196 13.512L43.368 15.528L43.06 16.9C42.3133 16.4146 41.5947 16.06 40.904 15.836C40.232 15.612 39.5693 15.5 38.916 15.5C37.9827 15.5 37.2173 15.696 36.62 16.088C36.0413 16.48 35.6307 16.9746 35.388 17.572C35.164 18.1693 35.108 18.7946 35.22 19.448C35.332 20.0826 35.612 20.6426 36.06 21.128C36.4893 21.4266 37.0587 21.5853 37.768 21.604C38.496 21.6226 39.252 21.5106 40.036 21.268C40.8387 21.0066 41.5573 20.6053 42.192 20.064C42.8267 19.5226 43.256 18.8413 43.48 18.02L43.844 21.38C43.3773 22.0893 42.7707 22.6306 42.024 23.004C41.2773 23.3586 40.5027 23.536 39.7 23.536ZM44.628 26.924L42.976 25.86V10.264L43.676 10.572L45.3 12V26.728L44.628 26.924ZM32 10.936L31.16 9.53596L31.412 8.97596H47.82L48.66 10.376L48.408 10.936H32Z" fill="#EBEBEB"/>
<path d="M44.0103 9.56396C43.0396 8.85463 42.2463 8.03329 41.6303 7.09996C40.9956 6.16662 40.6783 5.23329 40.6783 4.29996C40.6783 3.68396 40.8182 3.11462 41.0982 2.59196C41.3782 2.06929 41.7796 1.64929 42.3023 1.33196C42.8249 1.01462 43.4596 0.855957 44.2063 0.855957C44.8783 0.855957 45.4943 0.97729 46.0543 1.21996C46.6143 1.46262 47.0716 1.73329 47.4263 2.03196L47.0063 3.29196C46.3716 2.89996 45.7369 2.70396 45.1023 2.70396C44.4303 2.70396 43.8609 2.91862 43.3943 3.34796C42.9089 3.75862 42.6663 4.34662 42.6663 5.11196C42.6663 5.69062 42.8436 6.33462 43.1983 7.04396C43.5343 7.73462 44.0756 8.41596 44.8223 9.08796L44.0103 9.56396Z" fill="#EBEBEB"/>
<path d="M40.908 40.32C40.0867 41.2293 39.1627 41.684 38.136 41.684C36.4347 41.684 34.44 41.0973 32.152 39.924C29.864 38.7506 27.884 37.372 26.212 35.788C24.5693 34.1746 23.748 32.7813 23.748 31.608V25.404C22.8973 25.6386 22.12 25.756 21.416 25.756C19.5973 25.756 17.6907 25.0666 15.696 23.688C14.8747 24.832 13.8627 25.6826 12.66 26.24C11.4867 26.768 10.2107 27.032 8.832 27.032C8.33333 27.032 7.952 27.0173 7.688 26.988C10.0933 30.42 12.3373 33.104 14.42 35.04C16.532 36.976 18.2627 37.944 19.612 37.944C20.316 37.944 21.0053 37.4893 21.68 36.58L24.628 38.956C24.2173 39.4253 23.6893 39.792 23.044 40.056C22.3987 40.3493 21.7387 40.496 21.064 40.496C19.3333 40.496 17.0013 39.1906 14.068 36.58C11.1347 33.9693 8.50933 31.0066 6.192 27.692C3.904 24.3773 2.76 21.8253 2.76 20.036C2.76 19.156 3.156 18.4226 3.948 17.836C4.74 17.2493 5.64933 16.956 6.676 16.956C7.70267 16.956 8.7 17.4253 9.668 18.364C10.6653 19.2733 11.4427 20.4906 12 22.016C12.6453 21.6346 13.144 21.136 13.496 20.52C13.8773 19.8746 14.068 19.1853 14.068 18.452C14.068 17.4253 13.804 16.3693 13.276 15.284C12.748 14.1693 12.0147 13.1426 11.076 12.204H0.384001V8.68396H10.02L13.276 12.204C14.2733 13.2893 15.0947 14.5506 15.74 15.988C16.4147 17.396 16.7667 18.7453 16.796 20.036C16.796 20.7693 16.6493 21.5466 16.356 22.368C17.1773 22.896 18.1747 23.16 19.348 23.16C20.8147 23.16 22.2813 22.808 23.748 22.104V12.204H15.3L12.044 8.68396H23.836L27.4 12.204V34.116C27.4 34.7613 27.8693 35.524 28.808 36.404C29.7467 37.2546 30.8467 38.0026 32.108 38.648C33.3987 39.264 34.484 39.572 35.364 39.572C36.2147 39.572 36.992 39.132 37.696 38.252L40.908 40.32ZM29.38 12.204L25.86 8.68396H32.46V12.204H29.38ZM6.676 23.776C8.20133 23.776 9.624 23.424 10.944 22.72C10.7093 21.9866 10.284 21.356 9.668 20.828C9.08133 20.3 8.48 20.036 7.864 20.036C7.21867 20.036 6.61733 20.2266 6.06 20.608C5.532 20.96 5.268 21.3706 5.268 21.84C5.268 22.3386 5.4 22.7933 5.664 23.204C5.95733 23.5853 6.29467 23.776 6.676 23.776Z" fill="#EBEBEB"/>
<path d="M51.14 17.26C50.4067 17.1133 49.9 16.7066 49.62 16.04C49.6867 15.6533 49.8267 15.3266 50.04 15.06C50.2533 14.78 50.54 14.5533 50.9 14.38C51.3 14.5266 51.6267 14.7266 51.88 14.98C52.1467 15.22 52.3067 15.5 52.36 15.82C52.16 16.4866 51.7533 16.9666 51.14 17.26ZM51.14 23.4C50.4067 23.2533 49.9 22.8466 49.62 22.18C49.6867 21.7933 49.8267 21.4666 50.04 21.2C50.2533 20.92 50.54 20.6933 50.9 20.52C51.3 20.6666 51.6267 20.8666 51.88 21.12C52.1467 21.36 52.3067 21.64 52.36 21.96C52.16 22.6266 51.7533 23.1066 51.14 23.4Z" fill="white"/>
</svg>
