<svg width="58" height="58" viewBox="0 0 58 58" fill="none" xmlns="http://www.w3.org/2000/svg">
<path d="M52.7998 40.8V33.6M52.7998 33.6H4.7998M52.7998 33.6H28.7998V21.6H45.5998C47.5094 21.6 49.3407 22.3586 50.691 23.7089C52.0412 25.0591 52.7998 26.8905 52.7998 28.8V33.6ZM4.7998 19.2V40.8M11.9998 21.6C11.9998 22.8731 12.5055 24.094 13.4057 24.9942C14.3059 25.8943 15.5268 26.4 16.7998 26.4C18.0728 26.4 19.2937 25.8943 20.1939 24.9942C21.0941 24.094 21.5998 22.8731 21.5998 21.6C21.5998 20.327 21.0941 19.1061 20.1939 18.2059C19.2937 17.3058 18.0728 16.8 16.7998 16.8C15.5268 16.8 14.3059 17.3058 13.4057 18.2059C12.5055 19.1061 11.9998 20.327 11.9998 21.6Z" stroke="#EBEBEB" stroke-width="4.8" stroke-linecap="round" stroke-linejoin="round"/>
</svg>
